<svg xmlns="http://www.w3.org/2000/svg" width="13" height="13" viewBox="0 0 13 13">
  <!-- Simplified feather quill (brighter for dark theme) -->
  <path d="M7.5 1.5C6 3.5 4 6.5 3.5 8.5c-.3 1.2 0 2 .5 2.3C5.5 7.5 7 4.5 8.5 2.8c.4-.5.4-1 .1-1.2-.2-.2-.6-.2-1.1.0z" fill="#78A5F5"/>
  <path d="M9 2.5C8 4 6.5 6.5 5.5 9c-.3.8-.2 1.5.2 1.8C7 8.5 8.5 5.5 9.8 3.5c.3-.6.3-1.1 0-1.3-.2-.1-.4 0-.8.3z" fill="#5DD4DC"/>
  <!-- Swoosh -->
  <path d="M3 9.5c1-.3 2.5-1 4-1c1.2 0 2.2.3 3 1" fill="none" stroke="#5DD4DC" stroke-width="0.9" stroke-linecap="round"/>
</svg>
