<svg xmlns="http://www.w3.org/2000/svg" width="40" height="40" viewBox="0 0 40 40">
  <defs>
    <linearGradient id="featherMain" x1="0.3" y1="0" x2="0.7" y2="1">
      <stop offset="0%" stop-color="#1E88E5"/>
      <stop offset="50%" stop-color="#42A5F5"/>
      <stop offset="100%" stop-color="#64B5F6"/>
    </linearGradient>
    <linearGradient id="featherOverlap" x1="0.5" y1="0" x2="0.5" y2="1">
      <stop offset="0%" stop-color="#42A5F5"/>
      <stop offset="100%" stop-color="#4DD0E1"/>
    </linearGradient>
    <linearGradient id="swoosh" x1="0" y1="0.5" x2="1" y2="0.5">
      <stop offset="0%" stop-color="#4DD0E1"/>
      <stop offset="100%" stop-color="#80DEEA"/>
    </linearGradient>
  </defs>
  <!-- Main feather blade (back) -->
  <path d="M22 3C18 8 12 16 10 22c-1.5 4.5-1 7 0.5 8.5C14 22 19 13 24 7c1.5-1.8 2-3.5 1-4.5C24.2 1.8 23 2 22 3z" fill="url(#featherMain)"/>
  <!-- Feather overlap (front, teal) -->
  <path d="M26 6c-3 4-7 11-10 17c-1.5 3-1.5 5.5-0.5 7C19 24 23 17 27 11c1.5-2.2 2-4 1-5C27.3 5.3 26.6 5.5 26 6z" fill="url(#featherOverlap)"/>
  <!-- Curved swoosh below -->
  <path d="M8 28c3-1 7-3.5 12-3.5c3.5 0 6 1 8 3" fill="none" stroke="url(#swoosh)" stroke-width="2" stroke-linecap="round"/>
  <!-- Code brackets <> -->
  <path d="M15 33l-3-2.5 3-2.5" fill="none" stroke="#4DD0E1" stroke-width="1.5" stroke-linecap="round" stroke-linejoin="round"/>
  <path d="M21 33l3-2.5-3-2.5" fill="none" stroke="#42A5F5" stroke-width="1.5" stroke-linecap="round" stroke-linejoin="round"/>
</svg>
